# xmcd
#
# Track frame offsets:
#	150
#	13357
#	23730
#	34670
#	58402
#	73267
#	93250
#	111875
#	126315
#	144380
#	158942
#	171020
#	188445
#	199225
#	213002
#	229097
#	240932
#	257705
#	271527
#	283820
#	304782
#
# Disc length: 4240 seconds
#
# Revision: 1
# Processed by: cddbd v1.5.1PL0 Copyright (c) Steve Scherf et al.
# Submitted via: CDex 1.50Beta5
#
DISCID=28108e15
DTITLE=森の木児童(合) ドリーミング - いっしょに歌おう最新版「それゆけ!アンパンマン」全曲集
DYEAR=1900
DGENRE=Music
TTITLE0=アンパンマンのマーチ(ドリーミング)
TTITLE1=いくぞ!ばいきんまん(中尾隆聖)
TTITLE2=カレンなカレンダーガール(ドリーミング)
TTITLE3=アンパンマンたいそう(Cha-Cha)
TTITLE4=ホラーマンメチャクチャチャ(肝付兼太)
TTITLE5=とべ!とべ!ちびごん(ドリーミング)
TTITLE6=ヤーダ姫の冒険(ドリーミング)
TTITLE7=うつくしい海(冨永みーな)
TTITLE8=バナナダンス(いずみたくとそのファミリー)
TTITLE9=森は枯れても(ドリーミング)
TTITLE10=アンパンマン絵かきうた’89(戸田恵子/ドリーミング)
TTITLE11=アンパンマン音頭’89(ドリーミング/アンパン合唱団)
TTITLE12=生きてるパンをつくろう(増岡弘/佐久間レイ)
TTITLE13=てんどんまん自慢歌(坂本千夏)
TTITLE14=おなじみしょくぱんまん(島本須美/ドリーミング)
TTITLE15=とべ!カレーパンマン(ドリーミング)
TTITLE16=海はふるさと(ドリーミング)
TTITLE17=まわれうずまき(中尾隆聖)
TTITLE18=ドキンドキンドキンちゃん~ドキンのうた(ドリーミング)
TTITLE19=勇気の花がひらくとき(ドリーミング)
TTITLE20=勇気りんりん(ドリーミング)
EXTD=
EXTT0=
EXTT1=
EXTT2=
EXTT3=
EXTT4=
EXTT5=
EXTT6=
EXTT7=
EXTT8=
EXTT9=
EXTT10=
EXTT11=
EXTT12=
EXTT13=
EXTT14=
EXTT15=
EXTT16=
EXTT17=
EXTT18=
EXTT19=
EXTT20=
PLAYORDER=
